<?xml version="1.0" encoding="utf-8"?>
<!-- Generator: Adobe Illustrator 21.0.0, SVG Export Plug-In . SVG Version: 6.00 Build 0)  -->
<svg version="1.1" id="Capa_1" xmlns="http://www.w3.org/2000/svg" xmlns:xlink="http://www.w3.org/1999/xlink" x="0px" y="0px"
	 viewBox="0 0 97.1 97.1" style="enable-background:new 0 0 97.1 97.1;" xml:space="preserve">
<style type="text/css">
	.st0{fill:#2AABE1;}
</style>
<g>
	<g>
		<path class="st0" d="M78.7,56.1C74.9,50,65.3,45.8,52.7,44.9c-0.6,0-1.1,0.1-1.5,0.5c-0.3,0.3-0.6,0.6-0.9,1
			c-0.6,0.7-1.2,1.3-1.7,1.5h0c-0.6-0.2-1.2-0.9-1.8-1.6c-0.3-0.4-0.6-0.7-0.9-1c-0.4-0.4-1-0.6-1.5-0.5c-12.5,0.9-22.2,5.1-26,11.3
			c-0.6,1-14.3,25.8-3,40.2c0.4,0.5,1,0.8,1.6,0.8h63.2c0.6,0,1.2-0.3,1.6-0.8C93.2,81.8,78.9,56.4,78.7,56.1z M52.2,81.9
			c0,0.2-0.1,0.5-0.2,0.7l-2.2,4.1c-0.3,0.5-0.8,0.8-1.3,0.8s-1.1-0.3-1.3-0.8l-2.2-4.1c-0.1-0.2-0.2-0.4-0.2-0.7l-0.8-29.1
			c0-0.5,0.2-1,0.6-1.3l3-2.2c0.5-0.4,1.2-0.4,1.8,0l3,2.2c0.4,0.3,0.6,0.8,0.6,1.3L52.2,81.9z"/>
		<path class="st0" d="M48.2,42.4c11.7,0,21.2-9.5,21.2-21.2C69.4,9.5,59.9,0,48.2,0C36.5,0,27,9.5,27,21.2
			C27,32.9,36.5,42.4,48.2,42.4z"/>
	</g>
</g>
</svg>
