<?xml version="1.0" encoding="utf-8"?>
<!-- Generator: Adobe Illustrator 21.0.0, SVG Export Plug-In . SVG Version: 6.00 Build 0)  -->
<svg version="1.1" id="Capa_1" xmlns="http://www.w3.org/2000/svg" xmlns:xlink="http://www.w3.org/1999/xlink" x="0px" y="0px"
	 viewBox="0 0 512 512" style="enable-background:new 0 0 512 512;" xml:space="preserve">
<style type="text/css">
	.st0{fill:#2AABE1;}
	.st1{fill:#091F38;stroke:#091F38;stroke-width:8;stroke-miterlimit:10;}
</style>
<g>
	<path class="st0" d="M284.4,494.9h-188V17.1h290.1v264.8c5.7,0,11.4,0.1,17.1,0.2V0H11.1v512h268.8
		C281.2,506.3,282.8,500.6,284.4,494.9z M79.3,494.9H28.1V17.1h51.2V494.9z"/>
	<rect x="122" y="119.5" class="st0" width="119.5" height="17.1"/>
	<rect x="122" y="153.6" class="st0" width="119.5" height="17.1"/>
	<rect x="122" y="192.5" class="st0" width="119.5" height="17.1"/>
	<rect x="122" y="226.6" class="st0" width="119.5" height="17.1"/>
	<rect x="122" y="261.5" class="st0" width="119.5" height="17.1"/>
	<rect x="122" y="295.6" class="st0" width="119.5" height="17.1"/>
	<rect x="122" y="334.5" class="st0" width="119.5" height="17.1"/>
	<rect x="122" y="368.6" class="st0" width="119.5" height="17.1"/>
	<rect x="386.5" y="230.5" class="st0" width="17.1" height="281.5"/>
	
		<rect x="254.2" y="362.7" transform="matrix(-1.836970e-16 1 -1 -1.836970e-16 766.2 240.7)" class="st0" width="17.1" height="281.5"/>
</g>
<path class="st1" d="M208.3,127.3c37.2,0,106.4,9.9,160.6,75c1.3,1.3,38.5,41,37.9,126.9h90.6L345.5,481L194,329.2h91.8
	c3.7-23.3,10.5-118.2-106.1-187.6l-15.2-9l17.3-3.4C182.2,129.1,192.2,127.3,208.3,127.3z M464.8,342.7H393l0.2-6.9
	c2.6-84.7-34-124.1-34.4-124.5c-53.6-64.3-122.6-71.4-155.3-70.5c120.6,82.6,94.7,195.6,94.5,196.8l-1.3,5.1h-70.2l119,119.2
	L464.8,342.7z"/>
</svg>
