<?xml version="1.0" encoding="utf-8"?>
<!-- Generator: Adobe Illustrator 21.0.0, SVG Export Plug-In . SVG Version: 6.00 Build 0)  -->
<svg version="1.1" id="Capa_1" xmlns="http://www.w3.org/2000/svg" xmlns:xlink="http://www.w3.org/1999/xlink" x="0px" y="0px"
	 viewBox="0 0 536.1 536.1" style="enable-background:new 0 0 536.1 536.1;" xml:space="preserve">
<style type="text/css">
	.st0{fill:#2AABE1;}
</style>
<g>
	<path class="st0" d="M147.1,91.1c0-38,30.8-68.7,68.7-68.7c37.9,0,68.7,30.8,68.7,68.7s-30.8,68.7-68.7,68.7
		C177.9,159.8,147.1,129,147.1,91.1z M248.9,206.6c0.7-15,5.8-28.8,14.1-40.3c-5.8-1.2-11.8-1.9-18-1.9h-58.3
		c-6.1,0-12.2,0.6-17.9,1.8c8.8,12.2,14.1,27.2,14.2,43.3c10.7-5.9,23-9.3,36.1-9.3C229.6,200.4,239.7,202.6,248.9,206.6z
		 M260.5,212.8c20,12.5,34,33.7,36.5,58.3c8.1,3.8,17.2,6,26.7,6c35,0,63.3-28.3,63.3-63.3c0-35-28.3-63.3-63.3-63.3
		C289.1,150.4,261,178.3,260.5,212.8z M219,342.4c35,0,63.3-28.4,63.3-63.3c0-35-28.3-63.3-63.3-63.3c-35,0-63.3,28.3-63.3,63.3
		C155.7,314.1,184.1,342.4,219,342.4z M245.9,346.7h-53.7c-44.7,0-81.1,36.4-81.1,81.1v65.7l0.2,1l4.5,1.4
		c42.7,13.3,79.7,17.8,110.2,17.8c59.6,0,94.1-17,96.2-18.1l4.2-2.1h0.4v-65.7C326.9,383.1,290.6,346.7,245.9,346.7z M350.6,281.4
		h-53.3c-0.6,21.3-9.7,40.5-24.1,54.4c39.7,11.8,68.8,48.7,68.8,92.2v20.2c52.6-1.9,83-16.8,85-17.9l4.2-2.2h0.4v-65.7
		C431.7,317.7,395.3,281.4,350.6,281.4z M364.9,149.1c20,12.5,34,33.7,36.5,58.3c8.1,3.8,17.2,6,26.7,6c35,0,63.3-28.3,63.3-63.3
		c0-35-28.3-63.3-63.3-63.3C393.5,86.7,365.4,114.6,364.9,149.1z M455,217.7h-53.3c-0.6,21.3-9.7,40.5-24.1,54.3
		c39.7,11.8,68.8,48.7,68.8,92.2v20.2c52.6-1.9,83-16.8,85-17.9l4.2-2.1h0.5v-65.7C536.1,254,499.7,217.7,455,217.7z M107.9,277
		c12.4,0,23.9-3.6,33.7-9.8c3.1-20.2,14-37.9,29.5-50c0.1-1.2,0.2-2.4,0.2-3.6c0-35-28.4-63.3-63.3-63.3c-35,0-63.3,28.3-63.3,63.3
		C44.6,248.7,73,277,107.9,277z M164.8,335.7c-14.3-13.7-23.4-32.8-24.1-54.1c-2-0.1-3.9-0.3-5.9-0.3H81.1
		C36.4,281.4,0,317.7,0,362.4v65.7l0.2,1l4.5,1.4c34.2,10.7,64.8,15.6,91.3,17.2v-19.8C96,384.4,125.1,347.5,164.8,335.7z"/>
</g>
</svg>
