<?xml version="1.0" encoding="utf-8"?>
<!-- Generator: Adobe Illustrator 21.0.0, SVG Export Plug-In . SVG Version: 6.00 Build 0)  -->
<svg version="1.1" id="Layer_1" xmlns="http://www.w3.org/2000/svg" xmlns:xlink="http://www.w3.org/1999/xlink" x="0px" y="0px"
	 viewBox="0 0 297 297" style="enable-background:new 0 0 297 297;" xml:space="preserve">
<style type="text/css">
	.st0{fill:#2AABE1;}
</style>
<g>
	<path class="st0" d="M228,101.8c0,12.9,10.5,23.4,23.4,23.4s23.4-10.5,23.4-23.4s-10.5-23.4-23.4-23.4S228,88.9,228,101.8
		L228,101.8z"/>
	<path class="st0" d="M275.3,132.9c-0.1,0-5.9-1.8-5.9-1.8c-2.1-0.7-4.4-0.3-6.2,1.1l-11.7,8.8l-11.7-8.8c-1.8-1.3-4.1-1.7-6.2-1.1
		c0,0-5.9,1.8-5.9,1.8c-9.5,3.2-15.8,12-15.8,22v35.3c0,1.4,0.4,2.7,1.1,3.8l11.8,18v47.4c0,3.9,3.1,7,7,7h39.6c3.9,0,7-3.1,7-7
		v-47.4l11.8-18c0.7-1.1,1.1-2.5,1.1-3.8v-35.3C291.2,144.9,284.8,136.1,275.3,132.9L275.3,132.9z"/>
	<path class="st0" d="M45.6,125.2c12.9,0,23.4-10.5,23.4-23.4S58.5,78.4,45.6,78.4s-23.4,10.5-23.4,23.4S32.7,125.2,45.6,125.2z"/>
	<path class="st0" d="M69.5,132.9c-0.1,0-5.9-1.8-5.9-1.8c-2.1-0.7-4.4-0.3-6.2,1.1L45.6,141l-11.7-8.8c-1.8-1.3-4.1-1.7-6.2-1.1
		c0,0-5.9,1.8-5.9,1.8c-9.5,3.2-15.8,12-15.8,22v35.3c0,1.4,0.4,2.7,1.1,3.8l11.8,18v47.4c0,3.9,3.1,7,7,7h39.6c3.9,0,7-3.1,7-7
		v-47.4l11.8-18c0.7-1.1,1.1-2.5,1.1-3.8v-35.3C85.3,144.9,79,136.1,69.5,132.9z"/>
	<path class="st0" d="M178.6,68.9c0-16.6-13.5-30.1-30.1-30.1s-30.1,13.5-30.1,30.1c0,16.6,13.5,30.1,30.1,30.1
		S178.6,85.5,178.6,68.9z"/>
	<path class="st0" d="M181.6,113.6L181.6,113.6l-8.7-2.7c-1.4-0.4-2.8,0.3-3.3,1.6l-18.1,49.6c-1,2.9-5.1,2.9-6.1,0l-18.1-49.6
		c-0.4-1.1-1.4-1.8-2.5-1.8c-0.3,0-9.4,2.8-9.4,2.8c-11,3.7-18.3,13.8-18.3,25.4v52.5c0,0.5,0.2,1,0.4,1.5l18.9,28.7v72.7
		c0,1.5,1.2,2.7,2.7,2.7h58.8c1.5,0,2.7-1.2,2.7-2.7v-72.7l18.9-28.7c0.3-0.4,0.4-0.9,0.4-1.5v-52.6
		C199.9,127.3,192.5,117.2,181.6,113.6L181.6,113.6z"/>
	<path class="st0" d="M155.6,112.6c-0.7-0.8-1.8-1.2-2.9-1.2h-8.2c-1.1,0-2.2,0.4-2.9,1.2c-1.2,1.3-1.3,3.1-0.5,4.5l4.4,6.6
		l-2.1,17.4l4.1,10.8c0.4,1.1,1.9,1.1,2.3,0l4.1-10.8l-2.1-17.4l4.4-6.6C156.9,115.6,156.7,113.8,155.6,112.6z"/>
</g>
</svg>
